# xmcd
#
# Track frame offsets:
#	150
#	13641
#	27477
#	42438
#	54781
#	69515
#	89615
#	106225
#	117608
#	134322
#
# Disc length: 1999 seconds
#
# Revision: 0
# Processed by: cddbd v1.5.1PL0 Copyright (c) Steve Scherf et al.
# Submitted via: dBpowerAMP V4.0
#
DISCID=8607cd0a
DTITLE=The Highwaymen - Highwayman
DYEAR=1985
DGENRE=Country
TTITLE0=Highwayman
TTITLE1=Last Cowboy Song
TTITLE2=Jim, I Wore a Tie Today
TTITLE3=Big River
TTITLE4=Committed to Parkview
TTITLE5=Desperados Waiting for a Train
TTITLE6=Deportee (Plane Wreck at Los Gatos)
TTITLE7=Welfare Line
TTITLE8=Against the Wind
TTITLE9=Twentieth Century Is Almost Over
EXTD=
EXTT0=
EXTT1=
EXTT2=
EXTT3=
EXTT4=
EXTT5=
EXTT6=
EXTT7=
EXTT8=
EXTT9=
PLAYORDER=
